<svg width="16" height="16" viewBox="0 0 16 16" fill="none" xmlns="http://www.w3.org/2000/svg">
<path fill-rule="evenodd" clip-rule="evenodd" d="M7.10277 1.44387C8.22782 0.663073 9.74105 1.4874 9.71429 2.84801V13.1714C9.68427 14.5272 8.11254 15.3289 6.99991 14.5568C6.97402 14.5389 6.94967 14.5187 6.92709 14.4968L3.19634 10.8644H1.71429C0.774585 10.8644 0 10.085 0 9.14668V6.85402C0 5.9157 0.774584 5.13626 1.71429 5.13626H3.20066L7.0353 1.49874C7.05637 1.47876 7.07893 1.46042 7.10277 1.44387ZM14.7955 3.77412C14.5504 3.36919 14.0233 3.23968 13.6184 3.48486C13.2135 3.73004 13.084 4.25707 13.3291 4.66202C13.9393 5.6698 14.2695 6.8221 14.2857 7.99999C14.2695 9.17786 13.9393 10.3302 13.3291 11.338C13.084 11.7429 13.2135 12.2699 13.6184 12.5151C14.0233 12.7603 14.5504 12.6307 14.7955 12.2258C15.5661 10.9534 15.9819 9.49786 16 8.01041V7.98956C15.9819 6.50211 15.5661 5.04662 14.7955 3.77412ZM12.5671 5.83284C12.2653 5.46808 11.725 5.41697 11.3602 5.71868C10.9955 6.02041 10.9444 6.56071 11.2461 6.92548C11.4856 7.21513 11.6086 7.58375 11.5906 7.95922C11.5894 7.98638 11.5894 8.01359 11.5906 8.04075C11.6086 8.41622 11.4856 8.78484 11.2461 9.07449C10.9444 9.43926 10.9955 9.97956 11.3602 10.2813C11.725 10.583 12.2653 10.5319 12.5671 10.1671C13.0701 9.55897 13.3322 8.7878 13.3047 7.99999C13.3322 7.21217 13.0701 6.441 12.5671 5.83284Z" fill="white"/>
</svg>
